<?xml version="1.0" encoding="UTF-8"?>
<svg xmlns="http://www.w3.org/2000/svg" version="1.1" viewBox="0 0 254.7 102">
  <defs>
    <style>
      .cls-1 {
        fill: #82d5cb;
      }

      .cls-2 {
        fill: #78f9e6;
      }

      .cls-3 {
        fill: #e7f3f2;
      }

      .cls-4 {
        fill: #14b2aa;
      }

      .cls-5 {
        fill: #2f4e55;
      }
    </style>
  </defs>
  <!-- Generator: Adobe Illustrator 28.6.0, SVG Export Plug-In . SVG Version: 1.2.0 Build 709)  -->
  <g>
    <g id="_图层_1" data-name="图层_1">
      <path class="cls-5" d="M76.2,51c0,13,4.9,24.9,12.9,33.9-9.3,10.5-23,17.1-38.1,17.1C22.8,102,0,79.2,0,51S22.8,0,51,0s28.8,6.6,38.1,17.1c-8,9-12.9,20.9-12.9,33.9Z"/>
      <path class="cls-4" d="M102,51c0,13-4.9,24.9-12.9,33.9-8-9-12.9-20.9-12.9-33.9s4.9-24.9,12.9-33.9c8,9,12.9,20.9,12.9,33.9Z"/>
      <path class="cls-1" d="M165.5,17.2c-8,9-12.8,20.8-12.8,33.8s4.8,24.8,12.8,33.8h0c-9.4,10.6-23,17.2-38.2,17.2s-28.8-6.6-38.1-17.1c8-9,12.9-20.9,12.9-33.9s-4.9-24.9-12.9-33.9C98.5,6.6,112.1,0,127.2,0s28.9,6.7,38.2,17.2h0Z"/>
      <path class="cls-2" d="M178.3,51c0,13-4.8,24.8-12.8,33.8-8-9-12.8-20.8-12.8-33.8s4.8-24.8,12.8-33.8c8,9,12.8,20.8,12.8,33.8Z"/>
      <path class="cls-3" d="M254.7,51c0,28.2-22.8,51-51,51s-28.9-6.7-38.2-17.2h0c8-9,12.8-20.8,12.8-33.8s-4.8-24.8-12.8-33.8h0C174.8,6.7,188.5,0,203.7,0c28.2,0,51,22.8,51,51Z"/>
    </g>
  </g>
</svg>